<?xml version="1.0" encoding="UTF-8"?>
<svg width="195px" height="114px" viewBox="0 0 195 114" version="1.1" xmlns="http://www.w3.org/2000/svg" xmlns:xlink="http://www.w3.org/1999/xlink">
    <!-- Generator: Sketch 55.2 (78181) - https://sketchapp.com -->
    <title>Ilustación Pointer</title>
    <desc>Created with Sketch.</desc>
    <g id="Ilustación-Pointer" stroke="none" stroke-width="1" fill="none" fill-rule="evenodd">
        <g id="Group-2">
            <path d="M41,57 L13.6509546,57 L13.6509546,56.9682477 C6.0278405,56.4701672 -5.68434189e-14,50.1744311 -5.68434189e-14,42.4811321 C-5.68434189e-14,34.787833 6.0278405,28.492097 13.6509546,27.9940165 L13.6509546,27.9622642 L44.1607423,27.9622642 C51.1391676,27.1026485 56.5403175,21.194909 56.5403175,14.0349057 C56.5403175,6.2836413 50.2103005,0 42.4018288,0 C41.9079716,0 41.4200284,0.0251351841 40.9392265,0.0741871404 L40.9392265,0 L181.349045,0 L181.349045,0.0317523332 C188.972159,0.529832827 195,6.82556886 195,14.5188679 C195,22.212167 188.972159,28.507903 181.349045,29.0059835 L181.349045,29.0377358 L152.099947,29.0377358 C145.003287,29.7689917 139.469914,35.7241679 139.469914,42.9622642 C139.469914,50.6942506 145.784188,56.9622642 153.573239,56.9622642 C153.736413,56.9622642 153.898939,56.9595133 154.060773,56.9540559 L154.060773,57 L180,57 L180,57.0160592 C187.750278,57.3757214 193.922652,63.7312796 193.922652,71.5188679 C193.922652,79.5374173 187.378734,86.0377358 179.306401,86.0377358 C178.949279,86.0377358 178.595149,86.0250134 178.244444,86 L154.060773,86 L154.060773,86.0402837 C153.898939,86.0348263 153.736413,86.0320755 153.573239,86.0320755 C145.784188,86.0320755 139.469914,92.300089 139.469914,100.032075 C139.469914,107.443016 145.270713,113.509032 152.610966,114 L13.6509546,114 L13.6509546,113.968248 C6.0278405,113.470167 -5.68434189e-14,107.174431 -5.68434189e-14,99.4811321 C-5.68434189e-14,91.787833 6.0278405,85.492097 13.6509546,84.9940165 L13.6509546,84.9622642 L42.0357926,84.9622642 C49.2841015,84.4321878 55,78.3836037 55,71 C55,63.2680135 48.7319865,57 41,57 Z" id="Fondo" fill="#D3ECEB"></path>
            <g id="Miscelaneas" transform="translate(177.500000, 102.000000) scale(1, -1) translate(-177.500000, -102.000000) translate(160.000000, 90.000000)">
                <path d="M13.5,24 C9.91014913,24 7,21.0898509 7,17.5 C7,13.9101491 9.91014913,11 13.5,11 C17.0898509,11 20,13.9101491 20,17.5 C20,21.0898509 17.0898509,24 13.5,24 Z M13.5,21.7058824 C15.8228447,21.7058824 17.7058824,19.8228447 17.7058824,17.5 C17.7058824,15.1771553 15.8228447,13.2941176 13.5,13.2941176 C11.1771553,13.2941176 9.29411765,15.1771553 9.29411765,17.5 C9.29411765,19.8228447 11.1771553,21.7058824 13.5,21.7058824 Z" id="Ciculo" fill="#179EA4"></path>
                <g id="Cruz" transform="translate(25.000000, 3.000000)" fill="#77CFCE">
                    <rect id="Rectangle" x="0" y="3.57142857" width="10" height="2.14285714" rx="1.07142857"></rect>
                    <path d="M1.07142857,3.92857143 L8.92857143,3.92857143 C9.52030509,3.92857143 10,4.40826634 10,5 C10,5.59173366 9.52030509,6.07142857 8.92857143,6.07142857 L1.07142857,6.07142857 C0.479694911,6.07142857 -3.48069876e-12,5.59173366 -3.48077123e-12,5 C-3.48084369e-12,4.40826634 0.479694911,3.92857143 1.07142857,3.92857143 Z" id="Rectangle-Copy-9" transform="translate(5.000000, 5.000000) rotate(-270.000000) translate(-5.000000, -5.000000) "></path>
                </g>
                <g id="Cruz" fill="#77CFCE">
                    <rect id="Rectangle" x="0" y="2.5" width="7" height="1.5" rx="0.75"></rect>
                    <path d="M0.75,2.75 L6.25,2.75 C6.66421356,2.75 7,3.08578644 7,3.5 C7,3.91421356 6.66421356,4.25 6.25,4.25 L0.75,4.25 C0.335786438,4.25 -2.756411e-12,3.91421356 -2.75646173e-12,3.5 C-2.75651245e-12,3.08578644 0.335786438,2.75 0.75,2.75 Z" id="Rectangle-Copy-9" transform="translate(3.500000, 3.500000) rotate(-270.000000) translate(-3.500000, -3.500000) "></path>
                </g>
            </g>
            <g id="Miscelaneas" transform="translate(17.500000, 12.000000) scale(-1, 1) translate(-17.500000, -12.000000) ">
                <path d="M13.5,24 C9.91014913,24 7,21.0898509 7,17.5 C7,13.9101491 9.91014913,11 13.5,11 C17.0898509,11 20,13.9101491 20,17.5 C20,21.0898509 17.0898509,24 13.5,24 Z M13.5,21.7058824 C15.8228447,21.7058824 17.7058824,19.8228447 17.7058824,17.5 C17.7058824,15.1771553 15.8228447,13.2941176 13.5,13.2941176 C11.1771553,13.2941176 9.29411765,15.1771553 9.29411765,17.5 C9.29411765,19.8228447 11.1771553,21.7058824 13.5,21.7058824 Z" id="Ciculo" fill="#179EA4"></path>
                <g id="Cruz" transform="translate(25.000000, 3.000000)" fill="#77CFCE">
                    <rect id="Rectangle" x="0" y="3.57142857" width="10" height="2.14285714" rx="1.07142857"></rect>
                    <path d="M1.07142857,3.92857143 L8.92857143,3.92857143 C9.52030509,3.92857143 10,4.40826634 10,5 C10,5.59173366 9.52030509,6.07142857 8.92857143,6.07142857 L1.07142857,6.07142857 C0.479694911,6.07142857 -3.48069876e-12,5.59173366 -3.48077123e-12,5 C-3.48084369e-12,4.40826634 0.479694911,3.92857143 1.07142857,3.92857143 Z" id="Rectangle-Copy-9" transform="translate(5.000000, 5.000000) rotate(-270.000000) translate(-5.000000, -5.000000) "></path>
                </g>
                <g id="Cruz" fill="#77CFCE">
                    <rect id="Rectangle" x="0" y="2.5" width="7" height="1.5" rx="0.75"></rect>
                    <path d="M0.75,2.75 L6.25,2.75 C6.66421356,2.75 7,3.08578644 7,3.5 C7,3.91421356 6.66421356,4.25 6.25,4.25 L0.75,4.25 C0.335786438,4.25 -2.756411e-12,3.91421356 -2.75646173e-12,3.5 C-2.75651245e-12,3.08578644 0.335786438,2.75 0.75,2.75 Z" id="Rectangle-Copy-9" transform="translate(3.500000, 3.500000) rotate(-270.000000) translate(-3.500000, -3.500000) "></path>
                </g>
            </g>
            <g id="Group" transform="translate(55.000000, 2.000000)">
                <path d="M9.91679475,69.7886444 C3.72700331,62.405728 0,52.8881081 0,42.5 C0,19.0278981 19.0278981,0 42.5,0 C65.9721019,0 85,19.0278981 85,42.5 C85,52.9282715 81.2441217,62.4793106 75.0113004,69.8741819 C59.651269,90.0167728 50.7093942,101.790134 48.1856758,105.194264 C45.6361499,108.633206 43.9115634,110.22649 43.0119164,109.974118 L43.0119164,109.999752 C41.9119238,109.999752 40.1873373,108.406468 37.838157,105.219898 C35.5303583,102.089462 26.2232376,90.2790436 9.91679475,69.7886444 Z" id="Combined-Shape" fill="#A0DDDC"></path>
                <path d="M84.9843776,43.6636604 C83.9220269,18.7686073 69.9312065,4.54738713 43.0119164,1 C75.4377727,17.1206992 81.1780607,44.5035803 60.2327804,83.1486435 C57.1706207,88.7984774 51.3356475,97.7380716 42.7278609,109.967426 C41.6240471,109.72692 39.9941458,108.144411 37.838157,105.219898 C35.5303583,102.089462 26.2232376,90.2790436 9.91679475,69.7886444 C3.72700331,62.405728 0,52.8881081 0,42.5 C0,19.0278981 19.0278981,0 42.5,0 C65.9721019,0 85,19.0278981 85,42.5 C85,42.8891291 84.9947703,43.2770367 84.9843774,43.6636565 Z M84.2844521,50.3072823 C83.335816,54.7074768 81.4667838,59.5433225 78.6773556,64.8148195 C81.3800476,60.4424528 83.3122334,55.5434535 84.2844521,50.3072823 Z M50.5310259,102.066664 C49.4822225,103.45739 48.7004392,104.499923 48.1856758,105.194264 C45.6361499,108.633206 43.9115634,110.22649 43.0119164,109.974118 L43.0119164,109.999752 C43.001594,109.999752 42.9912166,109.999612 42.9807842,109.999331 C45.621993,107.296198 48.1387402,104.651975 50.5310259,102.066664 Z" id="Combined-Shape" fill="#179EA4"></path>
                <circle id="Oval" fill="#D3ECEB" cx="42.5" cy="40.5" r="20.5"></circle>
                <path d="M62.0878359,50.8975945 C61.8270906,51.3404455 61.3454129,51.6376316 60.7943237,51.6376316 C59.9658965,51.6376316 59.2943237,50.9660587 59.2943237,50.1376316 C59.2943237,49.7745944 59.4232931,49.4416797 59.6379147,49.1822045 C61.1431639,46.4605432 62,43.330334 62,40 C62,29.5065898 53.4934102,21 43,21 C32.5065898,21 24,29.5065898 24,40 C24,50.4934102 32.5065898,59 43,59 C45.8548667,59 48.5626725,58.3703578 50.9921251,57.2423658 L50.9981431,57.2533357 C51.1950457,57.1583344 51.4158756,57.1050882 51.649142,57.1050882 C52.4775691,57.1050882 53.149142,57.7766611 53.149142,58.6050882 C53.149142,59.2777369 52.7063894,59.8469752 52.0964161,60.0372712 C49.3240568,61.2978637 46.2440248,62 43,62 C30.8497355,62 21,52.1502645 21,40 C21,27.8497355 30.8497355,18 43,18 C55.1502645,18 65,27.8497355 65,40 C65,43.9706417 63.9480999,47.6955989 62.1077667,50.9114048 L62.0878359,50.8975945 Z" id="Combined-Shape" fill="#454848" fill-rule="nonzero"></path>
            </g>
            <path d="M89.6130179,99.9629625 L89.6166702,99.9600049 C91.9004928,102.880673 93.4233469,104.857784 94.1867187,105.893267 C95.7658459,108.03529 97.0278269,109.351195 97.6984671,109.82582 L98.2932435,109.992669 C98.4794815,109.891231 98.7413939,109.693062 99.0598844,109.39882 C99.8341755,108.683479 100.83865,107.500837 102.051672,105.864647 C104.559071,102.482528 113.421668,90.8135493 128.697421,70.7844019 C134.829299,63.5092932 138.247791,54.3254115 138.247791,44.6106214 C138.247791,22.1673322 120.053911,3.97345146 97.6106214,3.97345146 C75.1673322,3.97345146 56.9734515,22.1673322 56.9734515,44.6106214 C56.9734515,54.288297 60.3657416,63.4395265 66.4550555,70.7025977 L66.4790739,70.7320003 C70.8591892,76.2359788 74.7293933,81.1075791 78.0904968,85.3478536 L78.0819397,85.354783 C78.2650231,85.6018993 78.3733001,85.9077759 78.3733001,86.2389418 C78.3733001,87.0600378 77.7076703,87.7256676 76.8865744,87.7256676 C76.3512353,87.7256676 75.8819817,87.4427221 75.6202023,87.0182197 C72.2958519,82.8245983 68.4769143,78.0176128 64.1641691,72.5982757 C57.637801,64.8070295 54,54.9869843 54,44.6106214 C54,20.5251403 73.5251403,1 97.6106214,1 C121.696103,1 141.221243,20.5251403 141.221243,44.6106214 C141.221243,55.0333353 137.550745,64.8942382 131.016425,72.6440689 C115.798552,92.6002385 106.935661,104.269604 104.440292,107.635497 C102.43853,110.335584 100.930227,112.012455 99.6047333,112.677797 C99.1999642,112.942419 98.2844972,113.008664 98.1686844,113.000527 L98.1180076,113.000527 C96.3426081,113.000527 94.4266812,111.229702 91.7933482,107.657691 C91.0539431,106.654718 89.5769682,104.736859 87.3638343,101.905946 C87.1210982,101.641347 86.9729448,101.288573 86.9729448,100.901196 C86.9729448,100.080101 87.6385746,99.4144707 88.4596705,99.4144707 C88.9250042,99.4144707 89.3404061,99.6282541 89.6130179,99.9629625 Z" id="Combined-Shape" fill="#454848" fill-rule="nonzero"></path>
            <path d="M81.1753348,91.359315 L84.2413062,95.2740854" id="Line-2" stroke="#454848" stroke-width="3" stroke-linecap="round"></path>
            <path d="M70.3689571,28.0698113 C64.5658025,41.4560221 65.8823451,53.4327517 74.318585,64" id="Path-11" stroke="#A0DDDC" stroke-width="3" stroke-linecap="round"></path>
        </g>
    </g>
</svg>